<mxfile host="Electron" modified="2024-02-19T18:11:27.231Z" agent="Mozilla/5.0 (Windows NT 10.0; Win64; x64) AppleWebKit/537.36 (KHTML, like Gecko) draw.io/22.1.2 Chrome/114.0.5735.289 Electron/25.9.4 Safari/537.36" etag="2nx0xzuPbZXF2dcVdIUr" version="22.1.2" type="device">
  <diagram name="Page-1" id="8MemY7fbHz197aCP4-ph">
    <mxGraphModel dx="2711" dy="1102" grid="1" gridSize="10" guides="1" tooltips="1" connect="1" arrows="1" fold="1" page="1" pageScale="1" pageWidth="827" pageHeight="1169" math="0" shadow="0">
      <root>
        <mxCell id="0" />
        <mxCell id="1" parent="0" />
        <mxCell id="lSeHhNgAafmJItUuzJo_-4" value="" style="verticalLabelPosition=bottom;shadow=0;dashed=0;align=center;html=1;verticalAlign=top;strokeWidth=1;shape=mxgraph.mockup.misc.map;" vertex="1" parent="1">
          <mxGeometry x="110" y="1235" width="180" height="230" as="geometry" />
        </mxCell>
        <mxCell id="hnOflWYH4oX3YSvJn2nz-60" value="" style="group" parent="1" vertex="1" connectable="0">
          <mxGeometry x="335.66999999999996" y="840" width="156.67000000000007" height="50" as="geometry" />
        </mxCell>
        <mxCell id="hnOflWYH4oX3YSvJn2nz-61" value="" style="rounded=1;whiteSpace=wrap;html=1;" parent="hnOflWYH4oX3YSvJn2nz-60" vertex="1">
          <mxGeometry x="6.670000000000073" width="150" height="50" as="geometry" />
        </mxCell>
        <mxCell id="hnOflWYH4oX3YSvJn2nz-62" value="&lt;div style=&quot;text-align: left;&quot;&gt;&lt;span style=&quot;font-size: 7px; background-color: initial;&quot;&gt;Départ : Cotonou, Aeroport&lt;/span&gt;&lt;/div&gt;&lt;font style=&quot;font-size: 7px;&quot;&gt;&lt;div style=&quot;text-align: left;&quot;&gt;&lt;span style=&quot;background-color: initial;&quot;&gt;Destination : Bohicon, Marché&lt;/span&gt;&lt;/div&gt;&lt;div style=&quot;text-align: left;&quot;&gt;&lt;span style=&quot;background-color: initial;&quot;&gt;Conducteur : Juliette Love&lt;/span&gt;&lt;/div&gt;&lt;/font&gt;" style="text;html=1;align=center;verticalAlign=middle;resizable=0;points=[];autosize=1;strokeColor=none;fillColor=none;" parent="hnOflWYH4oX3YSvJn2nz-60" vertex="1">
          <mxGeometry width="120" height="40" as="geometry" />
        </mxCell>
        <mxCell id="hnOflWYH4oX3YSvJn2nz-63" value="" style="shape=actor;whiteSpace=wrap;html=1;" parent="hnOflWYH4oX3YSvJn2nz-60" vertex="1">
          <mxGeometry x="120.00000000000006" y="10" width="30" height="30" as="geometry" />
        </mxCell>
        <mxCell id="hnOflWYH4oX3YSvJn2nz-1" value="" style="verticalLabelPosition=bottom;verticalAlign=top;html=1;shadow=0;dashed=0;strokeWidth=1;shape=mxgraph.android.phone2;strokeColor=#c0c0c0;" parent="1" vertex="1">
          <mxGeometry x="300" y="50" width="200" height="390" as="geometry" />
        </mxCell>
        <mxCell id="hnOflWYH4oX3YSvJn2nz-6" value="" style="group" parent="1" vertex="1" connectable="0">
          <mxGeometry x="330" y="100" width="140" height="50" as="geometry" />
        </mxCell>
        <mxCell id="hnOflWYH4oX3YSvJn2nz-3" value="Nom" style="fillColor=none;strokeColor=none;align=left;fontSize=10;" parent="hnOflWYH4oX3YSvJn2nz-6" vertex="1">
          <mxGeometry width="70" height="40" as="geometry" />
        </mxCell>
        <mxCell id="hnOflWYH4oX3YSvJn2nz-4" value="" style="html=1;shadow=0;dashed=0;shape=mxgraph.bootstrap.rrect;rSize=5;fillColor=none;strokeColor=#999999;align=left;spacing=15;fontSize=14;fontColor=#6C767D;" parent="hnOflWYH4oX3YSvJn2nz-6" vertex="1">
          <mxGeometry y="30" width="140" height="20" as="geometry" />
        </mxCell>
        <mxCell id="hnOflWYH4oX3YSvJn2nz-7" value="" style="group" parent="1" vertex="1" connectable="0">
          <mxGeometry x="330" y="150" width="140" height="50" as="geometry" />
        </mxCell>
        <mxCell id="hnOflWYH4oX3YSvJn2nz-8" value="Prenom" style="fillColor=none;strokeColor=none;align=left;fontSize=10;" parent="hnOflWYH4oX3YSvJn2nz-7" vertex="1">
          <mxGeometry width="70" height="40" as="geometry" />
        </mxCell>
        <mxCell id="hnOflWYH4oX3YSvJn2nz-9" value="" style="html=1;shadow=0;dashed=0;shape=mxgraph.bootstrap.rrect;rSize=5;fillColor=none;strokeColor=#999999;align=left;spacing=15;fontSize=14;fontColor=#6C767D;" parent="hnOflWYH4oX3YSvJn2nz-7" vertex="1">
          <mxGeometry y="30" width="140" height="20" as="geometry" />
        </mxCell>
        <mxCell id="hnOflWYH4oX3YSvJn2nz-10" value="" style="group" parent="1" vertex="1" connectable="0">
          <mxGeometry x="330" y="250" width="140" height="50" as="geometry" />
        </mxCell>
        <mxCell id="hnOflWYH4oX3YSvJn2nz-11" value="Mot de passe" style="fillColor=none;strokeColor=none;align=left;fontSize=10;" parent="hnOflWYH4oX3YSvJn2nz-10" vertex="1">
          <mxGeometry width="70" height="40" as="geometry" />
        </mxCell>
        <mxCell id="hnOflWYH4oX3YSvJn2nz-12" value="" style="html=1;shadow=0;dashed=0;shape=mxgraph.bootstrap.rrect;rSize=5;fillColor=none;strokeColor=#999999;align=left;spacing=15;fontSize=14;fontColor=#6C767D;" parent="hnOflWYH4oX3YSvJn2nz-10" vertex="1">
          <mxGeometry y="30" width="140" height="20" as="geometry" />
        </mxCell>
        <mxCell id="hnOflWYH4oX3YSvJn2nz-13" value="" style="group" parent="1" vertex="1" connectable="0">
          <mxGeometry x="330" y="200" width="140" height="50" as="geometry" />
        </mxCell>
        <mxCell id="hnOflWYH4oX3YSvJn2nz-14" value="Email" style="fillColor=none;strokeColor=none;align=left;fontSize=10;" parent="hnOflWYH4oX3YSvJn2nz-13" vertex="1">
          <mxGeometry width="70" height="40" as="geometry" />
        </mxCell>
        <mxCell id="hnOflWYH4oX3YSvJn2nz-15" value="" style="html=1;shadow=0;dashed=0;shape=mxgraph.bootstrap.rrect;rSize=5;fillColor=none;strokeColor=#999999;align=left;spacing=15;fontSize=14;fontColor=#6C767D;" parent="hnOflWYH4oX3YSvJn2nz-13" vertex="1">
          <mxGeometry y="30" width="140" height="20" as="geometry" />
        </mxCell>
        <mxCell id="hnOflWYH4oX3YSvJn2nz-16" value="" style="group" parent="1" vertex="1" connectable="0">
          <mxGeometry x="330" y="300" width="140" height="50" as="geometry" />
        </mxCell>
        <mxCell id="hnOflWYH4oX3YSvJn2nz-17" value="Telephone" style="fillColor=none;strokeColor=none;align=left;fontSize=10;" parent="hnOflWYH4oX3YSvJn2nz-16" vertex="1">
          <mxGeometry width="70" height="40" as="geometry" />
        </mxCell>
        <mxCell id="hnOflWYH4oX3YSvJn2nz-18" value="" style="html=1;shadow=0;dashed=0;shape=mxgraph.bootstrap.rrect;rSize=5;fillColor=none;strokeColor=#999999;align=left;spacing=15;fontSize=14;fontColor=#6C767D;" parent="hnOflWYH4oX3YSvJn2nz-16" vertex="1">
          <mxGeometry y="30" width="140" height="20" as="geometry" />
        </mxCell>
        <mxCell id="hnOflWYH4oX3YSvJn2nz-24" value="" style="group" parent="1" vertex="1" connectable="0">
          <mxGeometry x="320" y="370" width="66.66666666666667" height="30" as="geometry" />
        </mxCell>
        <mxCell id="hnOflWYH4oX3YSvJn2nz-23" value="&lt;font style=&quot;font-size: 7px;&quot;&gt;Homme&lt;/font&gt;" style="text;html=1;align=center;verticalAlign=middle;resizable=0;points=[];autosize=1;strokeColor=none;fillColor=none;" parent="hnOflWYH4oX3YSvJn2nz-24" vertex="1">
          <mxGeometry x="5" width="50" height="30" as="geometry" />
        </mxCell>
        <mxCell id="hnOflWYH4oX3YSvJn2nz-22" value="" style="dashed=0;labelPosition=right;align=left;shape=mxgraph.gmdl.checkbox;strokeColor=none;fillColor=#009587;strokeWidth=2;aspect=fixed;sketch=0;html=1;fontSize=10;" parent="hnOflWYH4oX3YSvJn2nz-24" vertex="1">
          <mxGeometry x="53.33" y="11.666666666666686" width="6.666666666666666" height="6.666666666666666" as="geometry" />
        </mxCell>
        <mxCell id="hnOflWYH4oX3YSvJn2nz-32" value="&lt;font style=&quot;font-size: 10px;&quot;&gt;Sexe&lt;/font&gt;" style="text;html=1;align=center;verticalAlign=middle;resizable=0;points=[];autosize=1;strokeColor=none;fillColor=none;" parent="1" vertex="1">
          <mxGeometry x="318.33000000000004" y="350" width="50" height="30" as="geometry" />
        </mxCell>
        <mxCell id="hnOflWYH4oX3YSvJn2nz-37" value="" style="group" parent="1" vertex="1" connectable="0">
          <mxGeometry x="370" y="370" width="66.66666666666667" height="30" as="geometry" />
        </mxCell>
        <mxCell id="hnOflWYH4oX3YSvJn2nz-38" value="&lt;font style=&quot;font-size: 7px;&quot;&gt;Femme&lt;/font&gt;" style="text;html=1;align=center;verticalAlign=middle;resizable=0;points=[];autosize=1;strokeColor=none;fillColor=none;" parent="hnOflWYH4oX3YSvJn2nz-37" vertex="1">
          <mxGeometry x="5" width="50" height="30" as="geometry" />
        </mxCell>
        <mxCell id="hnOflWYH4oX3YSvJn2nz-39" value="" style="dashed=0;labelPosition=right;align=left;shape=mxgraph.gmdl.checkbox;strokeColor=none;fillColor=#009587;strokeWidth=2;aspect=fixed;sketch=0;html=1;fontSize=10;" parent="hnOflWYH4oX3YSvJn2nz-37" vertex="1">
          <mxGeometry x="53.33" y="11.666666666666686" width="6.666666666666666" height="6.666666666666666" as="geometry" />
        </mxCell>
        <mxCell id="hnOflWYH4oX3YSvJn2nz-40" value="" style="group" parent="1" vertex="1" connectable="0">
          <mxGeometry x="420" y="370" width="66.66666666666667" height="30" as="geometry" />
        </mxCell>
        <mxCell id="hnOflWYH4oX3YSvJn2nz-41" value="&lt;font style=&quot;font-size: 7px;&quot;&gt;Autre&lt;/font&gt;" style="text;html=1;align=center;verticalAlign=middle;resizable=0;points=[];autosize=1;strokeColor=none;fillColor=none;" parent="hnOflWYH4oX3YSvJn2nz-40" vertex="1">
          <mxGeometry x="10" width="40" height="30" as="geometry" />
        </mxCell>
        <mxCell id="hnOflWYH4oX3YSvJn2nz-42" value="" style="dashed=0;labelPosition=right;align=left;shape=mxgraph.gmdl.checkbox;strokeColor=none;fillColor=#009587;strokeWidth=2;aspect=fixed;sketch=0;html=1;fontSize=10;" parent="hnOflWYH4oX3YSvJn2nz-40" vertex="1">
          <mxGeometry x="53.33" y="11.666666666666686" width="6.666666666666666" height="6.666666666666666" as="geometry" />
        </mxCell>
        <mxCell id="hnOflWYH4oX3YSvJn2nz-43" value="" style="verticalLabelPosition=bottom;verticalAlign=top;html=1;shadow=0;dashed=0;strokeWidth=1;shape=mxgraph.android.phone2;strokeColor=#c0c0c0;" parent="1" vertex="1">
          <mxGeometry x="-140" y="550" width="200" height="390" as="geometry" />
        </mxCell>
        <mxCell id="hnOflWYH4oX3YSvJn2nz-44" value="" style="verticalLabelPosition=bottom;verticalAlign=top;html=1;shadow=0;dashed=0;strokeWidth=1;shape=mxgraph.android.phone2;strokeColor=#c0c0c0;" parent="1" vertex="1">
          <mxGeometry x="550" y="1090" width="200" height="390" as="geometry" />
        </mxCell>
        <mxCell id="hnOflWYH4oX3YSvJn2nz-45" value="" style="verticalLabelPosition=bottom;verticalAlign=top;html=1;shadow=0;dashed=0;strokeWidth=1;shape=mxgraph.android.phone2;strokeColor=#c0c0c0;" parent="1" vertex="1">
          <mxGeometry x="100" y="1090" width="200" height="390" as="geometry" />
        </mxCell>
        <mxCell id="hnOflWYH4oX3YSvJn2nz-46" value="" style="verticalLabelPosition=bottom;verticalAlign=top;html=1;shadow=0;dashed=0;strokeWidth=1;shape=mxgraph.android.phone2;strokeColor=#c0c0c0;" parent="1" vertex="1">
          <mxGeometry x="780" y="550" width="200" height="390" as="geometry" />
        </mxCell>
        <mxCell id="hnOflWYH4oX3YSvJn2nz-47" value="" style="verticalLabelPosition=bottom;verticalAlign=top;html=1;shadow=0;dashed=0;strokeWidth=1;shape=mxgraph.android.phone2;strokeColor=#c0c0c0;" parent="1" vertex="1">
          <mxGeometry x="314.00000000000006" y="550" width="200" height="390" as="geometry" />
        </mxCell>
        <mxCell id="hnOflWYH4oX3YSvJn2nz-48" value="" style="shape=actor;whiteSpace=wrap;html=1;" parent="1" vertex="1">
          <mxGeometry x="-60" y="610" width="40" height="40" as="geometry" />
        </mxCell>
        <mxCell id="hnOflWYH4oX3YSvJn2nz-49" value="Profile&lt;br&gt;Acceuil&lt;br&gt;Historique&lt;br&gt;Ajout Vehicule&lt;br&gt;Se connecter&lt;br&gt;S&#39;incrire&lt;br&gt;" style="text;html=1;align=left;verticalAlign=middle;resizable=0;points=[];autosize=1;strokeColor=none;fillColor=none;" parent="1" vertex="1">
          <mxGeometry x="980" y="163" width="100" height="100" as="geometry" />
        </mxCell>
        <mxCell id="hnOflWYH4oX3YSvJn2nz-50" value="" style="rounded=1;whiteSpace=wrap;html=1;" parent="1" vertex="1">
          <mxGeometry x="320.66999999999996" y="585" width="186.67" height="25" as="geometry" />
        </mxCell>
        <mxCell id="hnOflWYH4oX3YSvJn2nz-51" value="" style="html=1;verticalLabelPosition=bottom;align=center;labelBackgroundColor=#ffffff;verticalAlign=top;strokeWidth=2;strokeColor=#0080F0;shadow=0;dashed=0;shape=mxgraph.ios7.icons.looking_glass;" parent="1" vertex="1">
          <mxGeometry x="486.67" y="590" width="10" height="15" as="geometry" />
        </mxCell>
        <mxCell id="hnOflWYH4oX3YSvJn2nz-52" value="&lt;font style=&quot;font-size: 8px;&quot;&gt;Search&lt;/font&gt;" style="text;html=1;align=center;verticalAlign=middle;resizable=0;points=[];autosize=1;strokeColor=none;fillColor=none;" parent="1" vertex="1">
          <mxGeometry x="320.66999999999996" y="580" width="50" height="30" as="geometry" />
        </mxCell>
        <mxCell id="hnOflWYH4oX3YSvJn2nz-53" value="&lt;font style=&quot;font-size: 10px;&quot;&gt;Trajet proche de Vous&lt;/font&gt;" style="text;html=1;align=center;verticalAlign=middle;resizable=0;points=[];autosize=1;strokeColor=none;fillColor=none;" parent="1" vertex="1">
          <mxGeometry x="320.67" y="750" width="120" height="30" as="geometry" />
        </mxCell>
        <mxCell id="hnOflWYH4oX3YSvJn2nz-55" value="&lt;font style=&quot;font-size: 9px;&quot;&gt;D&#39;après votre historique&lt;/font&gt;" style="text;html=1;align=center;verticalAlign=middle;resizable=0;points=[];autosize=1;strokeColor=none;fillColor=none;" parent="1" vertex="1">
          <mxGeometry x="320" y="615" width="120" height="30" as="geometry" />
        </mxCell>
        <mxCell id="hnOflWYH4oX3YSvJn2nz-59" value="" style="group" parent="1" vertex="1" connectable="0">
          <mxGeometry x="334.99999999999994" y="780" width="156.67000000000007" height="50" as="geometry" />
        </mxCell>
        <mxCell id="hnOflWYH4oX3YSvJn2nz-54" value="" style="rounded=1;whiteSpace=wrap;html=1;" parent="hnOflWYH4oX3YSvJn2nz-59" vertex="1">
          <mxGeometry x="6.670000000000073" width="150" height="50" as="geometry" />
        </mxCell>
        <mxCell id="hnOflWYH4oX3YSvJn2nz-56" value="&lt;div style=&quot;text-align: left;&quot;&gt;&lt;span style=&quot;font-size: 7px; background-color: initial;&quot;&gt;Départ : Abomey, Goho&lt;/span&gt;&lt;/div&gt;&lt;font style=&quot;font-size: 7px;&quot;&gt;&lt;div style=&quot;text-align: left;&quot;&gt;&lt;span style=&quot;background-color: initial;&quot;&gt;Destination : Bohicon, Marché&lt;/span&gt;&lt;/div&gt;&lt;div style=&quot;text-align: left;&quot;&gt;&lt;span style=&quot;background-color: initial;&quot;&gt;Conducteur : John Doe&lt;/span&gt;&lt;/div&gt;&lt;/font&gt;" style="text;html=1;align=center;verticalAlign=middle;resizable=0;points=[];autosize=1;strokeColor=none;fillColor=none;" parent="hnOflWYH4oX3YSvJn2nz-59" vertex="1">
          <mxGeometry width="120" height="40" as="geometry" />
        </mxCell>
        <mxCell id="hnOflWYH4oX3YSvJn2nz-58" value="" style="shape=actor;whiteSpace=wrap;html=1;" parent="hnOflWYH4oX3YSvJn2nz-59" vertex="1">
          <mxGeometry x="120.00000000000006" y="10" width="30" height="30" as="geometry" />
        </mxCell>
        <mxCell id="hnOflWYH4oX3YSvJn2nz-64" value="" style="group" parent="1" vertex="1" connectable="0">
          <mxGeometry x="328.33" y="645" width="150" height="90" as="geometry" />
        </mxCell>
        <mxCell id="hnOflWYH4oX3YSvJn2nz-70" value="" style="group" parent="hnOflWYH4oX3YSvJn2nz-64" vertex="1" connectable="0">
          <mxGeometry width="120" height="90" as="geometry" />
        </mxCell>
        <mxCell id="hnOflWYH4oX3YSvJn2nz-65" value="" style="rounded=1;whiteSpace=wrap;html=1;" parent="hnOflWYH4oX3YSvJn2nz-70" vertex="1">
          <mxGeometry x="6.39" width="103.61" height="90" as="geometry" />
        </mxCell>
        <mxCell id="hnOflWYH4oX3YSvJn2nz-66" value="&lt;div style=&quot;text-align: left;&quot;&gt;&lt;span style=&quot;font-size: 7px; background-color: initial;&quot;&gt;Départ : Abomey, Goho&lt;/span&gt;&lt;/div&gt;&lt;font style=&quot;font-size: 7px;&quot;&gt;&lt;div style=&quot;text-align: left;&quot;&gt;&lt;span style=&quot;background-color: initial;&quot;&gt;Destination : Bohicon, Marché&lt;/span&gt;&lt;/div&gt;&lt;div style=&quot;text-align: left;&quot;&gt;&lt;span style=&quot;background-color: initial;&quot;&gt;Conducteur : John Doe&lt;/span&gt;&lt;/div&gt;&lt;/font&gt;" style="text;html=1;align=center;verticalAlign=middle;resizable=0;points=[];autosize=1;strokeColor=none;fillColor=none;" parent="hnOflWYH4oX3YSvJn2nz-70" vertex="1">
          <mxGeometry y="50" width="120" height="40" as="geometry" />
        </mxCell>
        <mxCell id="hnOflWYH4oX3YSvJn2nz-68" value="" style="shape=actor;whiteSpace=wrap;html=1;" parent="hnOflWYH4oX3YSvJn2nz-70" vertex="1">
          <mxGeometry x="43.19" y="10" width="30" height="40" as="geometry" />
        </mxCell>
        <mxCell id="hnOflWYH4oX3YSvJn2nz-75" value="" style="group" parent="1" vertex="1" connectable="0">
          <mxGeometry x="440.67" y="645" width="150" height="90" as="geometry" />
        </mxCell>
        <mxCell id="hnOflWYH4oX3YSvJn2nz-76" value="" style="group" parent="hnOflWYH4oX3YSvJn2nz-75" vertex="1" connectable="0">
          <mxGeometry width="120" height="90" as="geometry" />
        </mxCell>
        <mxCell id="hnOflWYH4oX3YSvJn2nz-77" value="" style="rounded=1;whiteSpace=wrap;html=1;" parent="hnOflWYH4oX3YSvJn2nz-76" vertex="1">
          <mxGeometry x="6.39" width="103.61" height="90" as="geometry" />
        </mxCell>
        <mxCell id="hnOflWYH4oX3YSvJn2nz-78" value="&lt;div style=&quot;text-align: left;&quot;&gt;&lt;span style=&quot;font-size: 7px; background-color: initial;&quot;&gt;Départ : Abomey, Goho&lt;/span&gt;&lt;/div&gt;&lt;font style=&quot;font-size: 7px;&quot;&gt;&lt;div style=&quot;text-align: left;&quot;&gt;&lt;span style=&quot;background-color: initial;&quot;&gt;Destination : Bohicon, Marché&lt;/span&gt;&lt;/div&gt;&lt;div style=&quot;text-align: left;&quot;&gt;&lt;span style=&quot;background-color: initial;&quot;&gt;Conducteur : John Doe&lt;/span&gt;&lt;/div&gt;&lt;/font&gt;" style="text;html=1;align=center;verticalAlign=middle;resizable=0;points=[];autosize=1;strokeColor=none;fillColor=none;" parent="hnOflWYH4oX3YSvJn2nz-76" vertex="1">
          <mxGeometry y="50" width="120" height="40" as="geometry" />
        </mxCell>
        <mxCell id="hnOflWYH4oX3YSvJn2nz-79" value="" style="shape=actor;whiteSpace=wrap;html=1;" parent="hnOflWYH4oX3YSvJn2nz-76" vertex="1">
          <mxGeometry x="43.19" y="10" width="30" height="40" as="geometry" />
        </mxCell>
        <mxCell id="hnOflWYH4oX3YSvJn2nz-80" value="" style="rounded=1;whiteSpace=wrap;html=1;" parent="1" vertex="1">
          <mxGeometry x="560" y="910" width="170" height="20" as="geometry" />
        </mxCell>
        <mxCell id="hnOflWYH4oX3YSvJn2nz-81" value="" style="html=1;verticalLabelPosition=bottom;align=center;labelBackgroundColor=#ffffff;verticalAlign=top;strokeWidth=2;strokeColor=#0080F0;shadow=0;dashed=0;shape=mxgraph.ios7.icons.home;" parent="1" vertex="1">
          <mxGeometry x="636.5" y="915" width="17" height="10" as="geometry" />
        </mxCell>
        <mxCell id="hnOflWYH4oX3YSvJn2nz-82" value="" style="shape=actor;whiteSpace=wrap;fontColor=#0000FF;" parent="1" vertex="1">
          <mxGeometry x="710" y="915" width="10" height="10" as="geometry" />
        </mxCell>
        <mxCell id="hnOflWYH4oX3YSvJn2nz-83" value="" style="html=1;verticalLabelPosition=bottom;align=center;labelBackgroundColor=#ffffff;verticalAlign=top;strokeWidth=2;strokeColor=#0080F0;shadow=0;dashed=0;shape=mxgraph.ios7.icons.back;" parent="1" vertex="1">
          <mxGeometry x="680" y="915" width="10" height="10" as="geometry" />
        </mxCell>
        <mxCell id="hnOflWYH4oX3YSvJn2nz-84" value="" style="sketch=0;html=1;aspect=fixed;strokeColor=none;shadow=0;fillColor=#3B8DF1;verticalAlign=top;labelPosition=center;verticalLabelPosition=bottom;shape=mxgraph.gcp2.search" parent="1" vertex="1">
          <mxGeometry x="600" y="915" width="9.9" height="10" as="geometry" />
        </mxCell>
        <mxCell id="lSeHhNgAafmJItUuzJo_-2" value="Mes Trajets" style="rounded=1;whiteSpace=wrap;html=1;" vertex="1" parent="1">
          <mxGeometry x="785" y="585" width="190" height="30" as="geometry" />
        </mxCell>
        <mxCell id="lSeHhNgAafmJItUuzJo_-3" value="&lt;font style=&quot;font-size: 10px;&quot;&gt;Depart : Bohicon Moquas&lt;br style=&quot;&quot;&gt;Destination : Abomey, Goho&lt;br style=&quot;&quot;&gt;&lt;br&gt;&lt;/font&gt;" style="rounded=1;whiteSpace=wrap;html=1;align=left;" vertex="1" parent="1">
          <mxGeometry x="805" y="630" width="150" height="40" as="geometry" />
        </mxCell>
        <mxCell id="lSeHhNgAafmJItUuzJo_-5" value="&lt;font style=&quot;font-size: 10px;&quot;&gt;Depart : Votre Position&lt;br&gt;Destination :&amp;nbsp;&lt;br&gt;Vehicule&lt;br&gt;&lt;/font&gt;" style="rounded=1;whiteSpace=wrap;html=1;align=left;" vertex="1" parent="1">
          <mxGeometry x="120" y="1169" width="140" height="61" as="geometry" />
        </mxCell>
        <mxCell id="lSeHhNgAafmJItUuzJo_-6" value="" style="sketch=0;html=1;aspect=fixed;strokeColor=none;shadow=0;fillColor=#3B8DF1;verticalAlign=top;labelPosition=center;verticalLabelPosition=bottom;shape=mxgraph.gcp2.maps_api" vertex="1" parent="1">
          <mxGeometry x="160" y="1310" width="15.25" height="25" as="geometry" />
        </mxCell>
        <mxCell id="lSeHhNgAafmJItUuzJo_-7" value="" style="verticalLabelPosition=bottom;verticalAlign=top;html=1;shadow=0;dashed=0;strokeWidth=1;shape=mxgraph.ios.iAddIcon;fillColor=#7AdF78;fillColor2=#1A9917;strokeColor=#ffffff;sketch=0;" vertex="1" parent="1">
          <mxGeometry x="250" y="1400" width="25" height="25" as="geometry" />
        </mxCell>
        <mxCell id="lSeHhNgAafmJItUuzJo_-8" value="Ajouter un Trajet" style="rounded=1;whiteSpace=wrap;html=1;" vertex="1" parent="1">
          <mxGeometry x="110" y="1130" width="180" height="30" as="geometry" />
        </mxCell>
        <mxCell id="lSeHhNgAafmJItUuzJo_-9" value="&lt;font style=&quot;font-size: 10px;&quot;&gt;Depart : Abomey, Goho&lt;br&gt;Destination : Bohicon, Moquas&lt;br style=&quot;&quot;&gt;&lt;br&gt;&lt;/font&gt;" style="rounded=1;whiteSpace=wrap;html=1;align=left;" vertex="1" parent="1">
          <mxGeometry x="805" y="680" width="150" height="60" as="geometry" />
        </mxCell>
        <mxCell id="lSeHhNgAafmJItUuzJo_-10" value="" style="fillColor=#3399FF;verticalLabelPosition=bottom;sketch=0;html=1;strokeColor=#ffffff;verticalAlign=top;align=center;points=[[0.145,0.145,0],[0.5,0,0],[0.855,0.145,0],[1,0.5,0],[0.855,0.855,0],[0.5,1,0],[0.145,0.855,0],[0,0.5,0]];pointerEvents=1;shape=mxgraph.cisco_safe.compositeIcon;bgIcon=ellipse;resIcon=mxgraph.cisco_safe.capability.path_control;" vertex="1" parent="1">
          <mxGeometry x="570" y="915" width="10" height="10" as="geometry" />
        </mxCell>
        <mxCell id="lSeHhNgAafmJItUuzJo_-11" value="Détail Trajet" style="rounded=1;whiteSpace=wrap;html=1;" vertex="1" parent="1">
          <mxGeometry x="560" y="1130" width="180" height="30" as="geometry" />
        </mxCell>
        <mxCell id="lSeHhNgAafmJItUuzJo_-12" value="&lt;font style=&quot;font-size: 10px;&quot;&gt;Depart : Bohicon Moquas&lt;br style=&quot;&quot;&gt;Destination : Abomey, Goho&lt;br style=&quot;&quot;&gt;Heure de départ :&lt;br&gt;&lt;br&gt;&lt;/font&gt;" style="rounded=1;whiteSpace=wrap;html=1;align=left;" vertex="1" parent="1">
          <mxGeometry x="570" y="1179.5" width="150" height="70.5" as="geometry" />
        </mxCell>
        <mxCell id="lSeHhNgAafmJItUuzJo_-13" value="&lt;b&gt;&lt;font style=&quot;font-size: 11px;&quot;&gt;Conducteur&lt;/font&gt;&lt;/b&gt;" style="text;html=1;align=center;verticalAlign=middle;resizable=0;points=[];autosize=1;strokeColor=none;fillColor=none;" vertex="1" parent="1">
          <mxGeometry x="559.95" y="1258" width="90" height="30" as="geometry" />
        </mxCell>
        <mxCell id="lSeHhNgAafmJItUuzJo_-14" value="" style="rounded=1;whiteSpace=wrap;html=1;" vertex="1" parent="1">
          <mxGeometry x="560" y="1288" width="180" height="80" as="geometry" />
        </mxCell>
        <mxCell id="lSeHhNgAafmJItUuzJo_-15" value="" style="shape=actor;whiteSpace=wrap;html=1;" vertex="1" parent="1">
          <mxGeometry x="690" y="1297.5" width="40" height="37.5" as="geometry" />
        </mxCell>
        <mxCell id="lSeHhNgAafmJItUuzJo_-17" value="&lt;div style=&quot;text-align: left; font-size: 11px;&quot;&gt;&lt;span style=&quot;background-color: initial;&quot;&gt;&lt;font style=&quot;font-size: 11px;&quot;&gt;Nom : John Doe&lt;/font&gt;&lt;/span&gt;&lt;/div&gt;&lt;div style=&quot;text-align: left; font-size: 11px;&quot;&gt;&lt;span style=&quot;background-color: initial;&quot;&gt;&lt;font style=&quot;font-size: 11px;&quot;&gt;Telephone : 66666666&lt;/font&gt;&lt;/span&gt;&lt;/div&gt;&lt;div style=&quot;text-align: left; font-size: 11px;&quot;&gt;&lt;span style=&quot;background-color: initial;&quot;&gt;&lt;font style=&quot;font-size: 11px;&quot;&gt;Email : johndoe@gmail.com&lt;/font&gt;&lt;/span&gt;&lt;/div&gt;" style="text;html=1;align=center;verticalAlign=middle;resizable=0;points=[];autosize=1;strokeColor=none;fillColor=none;" vertex="1" parent="1">
          <mxGeometry x="559.95" y="1297.5" width="160" height="50" as="geometry" />
        </mxCell>
        <mxCell id="lSeHhNgAafmJItUuzJo_-18" value="&lt;b&gt;&lt;font style=&quot;font-size: 11px;&quot;&gt;Vehicule&lt;/font&gt;&lt;/b&gt;" style="text;html=1;align=center;verticalAlign=middle;resizable=0;points=[];autosize=1;strokeColor=none;fillColor=none;" vertex="1" parent="1">
          <mxGeometry x="555" y="1368" width="70" height="30" as="geometry" />
        </mxCell>
        <mxCell id="lSeHhNgAafmJItUuzJo_-19" value="&lt;font style=&quot;font-size: 10px;&quot;&gt;Nom : Doe&lt;br&gt;Prenom : John&lt;br&gt;Adresse mail : johndoe@gmail.com&lt;br&gt;Sexe : Homme&lt;br&gt;Vous etes un : Passager&lt;br&gt;&lt;/font&gt;" style="text;html=1;align=left;verticalAlign=middle;resizable=0;points=[];autosize=1;strokeColor=none;fillColor=none;" vertex="1" parent="1">
          <mxGeometry x="-120" y="660" width="180" height="90" as="geometry" />
        </mxCell>
        <mxCell id="lSeHhNgAafmJItUuzJo_-21" value="&lt;b&gt;Mes vehicules&lt;/b&gt;" style="text;html=1;align=center;verticalAlign=middle;resizable=0;points=[];autosize=1;strokeColor=none;fillColor=none;" vertex="1" parent="1">
          <mxGeometry x="-130" y="758" width="100" height="30" as="geometry" />
        </mxCell>
        <mxCell id="lSeHhNgAafmJItUuzJo_-22" value="&lt;font style=&quot;font-size: 10px;&quot;&gt;&amp;nbsp; &amp;nbsp; Toyota : DS 6020&lt;/font&gt;" style="rounded=1;whiteSpace=wrap;html=1;align=left;" vertex="1" parent="1">
          <mxGeometry x="-110" y="788" width="150" height="32" as="geometry" />
        </mxCell>
        <mxCell id="lSeHhNgAafmJItUuzJo_-23" value="&lt;font style=&quot;font-size: 10px;&quot;&gt;&amp;nbsp; &amp;nbsp; Toyota : DS 6020&lt;/font&gt;" style="rounded=1;whiteSpace=wrap;html=1;align=left;" vertex="1" parent="1">
          <mxGeometry x="-110" y="830" width="150" height="32" as="geometry" />
        </mxCell>
        <mxCell id="lSeHhNgAafmJItUuzJo_-24" value="" style="verticalLabelPosition=bottom;verticalAlign=top;html=1;shadow=0;dashed=0;strokeWidth=1;shape=mxgraph.ios.iAddIcon;fillColor=#7AdF78;fillColor2=#1A9917;strokeColor=#ffffff;sketch=0;" vertex="1" parent="1">
          <mxGeometry x="25" y="765" width="15" height="15" as="geometry" />
        </mxCell>
        <mxCell id="lSeHhNgAafmJItUuzJo_-25" value="" style="verticalLabelPosition=bottom;verticalAlign=top;html=1;shadow=0;dashed=0;strokeWidth=1;shape=mxgraph.android.phone2;strokeColor=#c0c0c0;" vertex="1" parent="1">
          <mxGeometry x="-430" y="550" width="200" height="390" as="geometry" />
        </mxCell>
        <mxCell id="lSeHhNgAafmJItUuzJo_-26" value="Ajout vehicule" style="rounded=1;whiteSpace=wrap;html=1;" vertex="1" parent="1">
          <mxGeometry x="-420" y="585" width="180" height="40" as="geometry" />
        </mxCell>
        <mxCell id="lSeHhNgAafmJItUuzJo_-27" value="+ id : string&lt;br style=&quot;&quot;&gt;&lt;span style=&quot;&quot;&gt;# numberPlate: string&lt;/span&gt;&lt;br style=&quot;&quot;&gt;&lt;span style=&quot;&quot;&gt;# vehicleMark : string&lt;/span&gt;&lt;br style=&quot;&quot;&gt;&lt;span style=&quot;&quot;&gt;# numberEngin : string&lt;/span&gt;&lt;br style=&quot;&quot;&gt;&lt;span style=&quot;&quot;&gt;# pictures : Photo&lt;/span&gt;&lt;br style=&quot;&quot;&gt;&lt;span style=&quot;&quot;&gt;# numberPlaces: int&lt;/span&gt;" style="text;html=1;align=left;verticalAlign=middle;resizable=0;points=[];autosize=1;strokeColor=none;fillColor=none;" vertex="1" parent="1">
          <mxGeometry x="-260" y="450" width="140" height="100" as="geometry" />
        </mxCell>
        <mxCell id="lSeHhNgAafmJItUuzJo_-28" value="" style="group" vertex="1" connectable="0" parent="1">
          <mxGeometry x="-400" y="625" width="140" height="50" as="geometry" />
        </mxCell>
        <mxCell id="lSeHhNgAafmJItUuzJo_-29" value="Marque" style="fillColor=none;strokeColor=none;align=left;fontSize=10;" vertex="1" parent="lSeHhNgAafmJItUuzJo_-28">
          <mxGeometry width="70" height="40" as="geometry" />
        </mxCell>
        <mxCell id="lSeHhNgAafmJItUuzJo_-30" value="" style="html=1;shadow=0;dashed=0;shape=mxgraph.bootstrap.rrect;rSize=5;fillColor=none;strokeColor=#999999;align=left;spacing=15;fontSize=14;fontColor=#6C767D;" vertex="1" parent="lSeHhNgAafmJItUuzJo_-28">
          <mxGeometry y="30" width="140" height="20" as="geometry" />
        </mxCell>
        <mxCell id="lSeHhNgAafmJItUuzJo_-31" value="" style="group" vertex="1" connectable="0" parent="1">
          <mxGeometry x="-400" y="730" width="140" height="50" as="geometry" />
        </mxCell>
        <mxCell id="lSeHhNgAafmJItUuzJo_-32" value="Numero de la plaque" style="fillColor=none;strokeColor=none;align=left;fontSize=10;" vertex="1" parent="lSeHhNgAafmJItUuzJo_-31">
          <mxGeometry width="70" height="40" as="geometry" />
        </mxCell>
        <mxCell id="lSeHhNgAafmJItUuzJo_-33" value="" style="html=1;shadow=0;dashed=0;shape=mxgraph.bootstrap.rrect;rSize=5;fillColor=none;strokeColor=#999999;align=left;spacing=15;fontSize=14;fontColor=#6C767D;" vertex="1" parent="lSeHhNgAafmJItUuzJo_-31">
          <mxGeometry y="30" width="140" height="20" as="geometry" />
        </mxCell>
        <mxCell id="lSeHhNgAafmJItUuzJo_-34" value="" style="group" vertex="1" connectable="0" parent="1">
          <mxGeometry x="-400" y="780" width="140" height="50" as="geometry" />
        </mxCell>
        <mxCell id="lSeHhNgAafmJItUuzJo_-35" value="Numero du Moteur" style="fillColor=none;strokeColor=none;align=left;fontSize=10;" vertex="1" parent="lSeHhNgAafmJItUuzJo_-34">
          <mxGeometry width="70" height="40" as="geometry" />
        </mxCell>
        <mxCell id="lSeHhNgAafmJItUuzJo_-36" value="" style="html=1;shadow=0;dashed=0;shape=mxgraph.bootstrap.rrect;rSize=5;fillColor=none;strokeColor=#999999;align=left;spacing=15;fontSize=14;fontColor=#6C767D;" vertex="1" parent="lSeHhNgAafmJItUuzJo_-34">
          <mxGeometry y="30" width="140" height="20" as="geometry" />
        </mxCell>
        <mxCell id="lSeHhNgAafmJItUuzJo_-37" value="" style="group" vertex="1" connectable="0" parent="1">
          <mxGeometry x="-400" y="830" width="140" height="50" as="geometry" />
        </mxCell>
        <mxCell id="lSeHhNgAafmJItUuzJo_-38" value="Ajouter une photo du vehicule" style="fillColor=none;strokeColor=none;align=left;fontSize=10;" vertex="1" parent="lSeHhNgAafmJItUuzJo_-37">
          <mxGeometry width="70" height="40" as="geometry" />
        </mxCell>
        <mxCell id="lSeHhNgAafmJItUuzJo_-39" value="" style="html=1;shadow=0;dashed=0;shape=mxgraph.bootstrap.rrect;rSize=5;fillColor=none;strokeColor=#999999;align=left;spacing=15;fontSize=14;fontColor=#6C767D;" vertex="1" parent="lSeHhNgAafmJItUuzJo_-37">
          <mxGeometry y="30" width="140" height="20" as="geometry" />
        </mxCell>
        <mxCell id="lSeHhNgAafmJItUuzJo_-40" value="" style="group" vertex="1" connectable="0" parent="1">
          <mxGeometry x="-400" y="675" width="140" height="50" as="geometry" />
        </mxCell>
        <mxCell id="lSeHhNgAafmJItUuzJo_-41" value="Nombre de Place" style="fillColor=none;strokeColor=none;align=left;fontSize=10;" vertex="1" parent="lSeHhNgAafmJItUuzJo_-40">
          <mxGeometry width="70" height="40" as="geometry" />
        </mxCell>
        <mxCell id="lSeHhNgAafmJItUuzJo_-42" value="" style="html=1;shadow=0;dashed=0;shape=mxgraph.bootstrap.rrect;rSize=5;fillColor=none;strokeColor=#999999;align=left;spacing=15;fontSize=14;fontColor=#6C767D;" vertex="1" parent="lSeHhNgAafmJItUuzJo_-40">
          <mxGeometry y="30" width="140" height="20" as="geometry" />
        </mxCell>
        <mxCell id="lSeHhNgAafmJItUuzJo_-43" value="&lt;b&gt;Prendre&lt;/b&gt;" style="rounded=1;whiteSpace=wrap;html=1;fillColor=#006633;" vertex="1" parent="1">
          <mxGeometry x="649.95" y="1410" width="80.05" height="30" as="geometry" />
        </mxCell>
        <mxCell id="lSeHhNgAafmJItUuzJo_-44" value="" style="verticalLabelPosition=bottom;verticalAlign=top;html=1;shadow=0;dashed=0;strokeWidth=1;shape=mxgraph.android.phone2;strokeColor=#c0c0c0;" vertex="1" parent="1">
          <mxGeometry x="1070" y="550" width="200" height="390" as="geometry" />
        </mxCell>
        <mxCell id="lSeHhNgAafmJItUuzJo_-45" value="&lt;font style=&quot;font-size: 10px;&quot;&gt;Depart : Bohicon Moquas&lt;br style=&quot;&quot;&gt;Destination : Abomey, Goho&lt;br style=&quot;&quot;&gt;&lt;br&gt;&lt;/font&gt;" style="rounded=1;whiteSpace=wrap;html=1;align=left;" vertex="1" parent="1">
          <mxGeometry x="1091" y="630" width="169" height="90" as="geometry" />
        </mxCell>
        <mxCell id="lSeHhNgAafmJItUuzJo_-46" value="&lt;b&gt;Matcher&lt;/b&gt;" style="rounded=1;whiteSpace=wrap;html=1;fillColor=#006633;" vertex="1" parent="1">
          <mxGeometry x="1160" y="685" width="80" height="25" as="geometry" />
        </mxCell>
        <mxCell id="lSeHhNgAafmJItUuzJo_-47" value="" style="verticalLabelPosition=bottom;verticalAlign=top;html=1;shadow=0;dashed=0;strokeWidth=1;shape=mxgraph.android.phone2;strokeColor=#c0c0c0;" vertex="1" parent="1">
          <mxGeometry x="636.5" y="40" width="200" height="390" as="geometry" />
        </mxCell>
        <mxCell id="lSeHhNgAafmJItUuzJo_-48" value="" style="group" vertex="1" connectable="0" parent="1">
          <mxGeometry x="660" y="130" width="140" height="50" as="geometry" />
        </mxCell>
        <mxCell id="lSeHhNgAafmJItUuzJo_-49" value="Email" style="fillColor=none;strokeColor=none;align=left;fontSize=10;" vertex="1" parent="lSeHhNgAafmJItUuzJo_-48">
          <mxGeometry width="70" height="40" as="geometry" />
        </mxCell>
        <mxCell id="lSeHhNgAafmJItUuzJo_-50" value="" style="html=1;shadow=0;dashed=0;shape=mxgraph.bootstrap.rrect;rSize=5;fillColor=none;strokeColor=#999999;align=left;spacing=15;fontSize=14;fontColor=#6C767D;" vertex="1" parent="lSeHhNgAafmJItUuzJo_-48">
          <mxGeometry y="30" width="140" height="20" as="geometry" />
        </mxCell>
        <mxCell id="lSeHhNgAafmJItUuzJo_-51" value="" style="group" vertex="1" connectable="0" parent="1">
          <mxGeometry x="660" y="190" width="140" height="50" as="geometry" />
        </mxCell>
        <mxCell id="lSeHhNgAafmJItUuzJo_-52" value="Mot de passe" style="fillColor=none;strokeColor=none;align=left;fontSize=10;" vertex="1" parent="lSeHhNgAafmJItUuzJo_-51">
          <mxGeometry width="70" height="40" as="geometry" />
        </mxCell>
        <mxCell id="lSeHhNgAafmJItUuzJo_-53" value="" style="html=1;shadow=0;dashed=0;shape=mxgraph.bootstrap.rrect;rSize=5;fillColor=none;strokeColor=#999999;align=left;spacing=15;fontSize=14;fontColor=#6C767D;" vertex="1" parent="lSeHhNgAafmJItUuzJo_-51">
          <mxGeometry y="30" width="140" height="20" as="geometry" />
        </mxCell>
        <mxCell id="lSeHhNgAafmJItUuzJo_-54" value="&lt;b&gt;Se connecter&lt;/b&gt;" style="rounded=1;whiteSpace=wrap;html=1;fillColor=#006633;" vertex="1" parent="1">
          <mxGeometry x="666.5" y="330" width="140" height="30" as="geometry" />
        </mxCell>
      </root>
    </mxGraphModel>
  </diagram>
</mxfile>
